<svg id="Group_11309" data-name="Group 11309" xmlns="http://www.w3.org/2000/svg" width="197.319" height="33.75" viewBox="0 0 197.319 33.75">
  <g id="Group_22" data-name="Group 22" transform="translate(0)">
    <path id="Path_1" data-name="Path 1" d="M165.762,125.165a7.077,7.077,0,0,0-6.673-4.734h-.068a7.053,7.053,0,0,0-5.1,2.177,7.036,7.036,0,0,0-5.095-2.177h-.064a7.027,7.027,0,0,0-4.608,1.715v-.541a1.04,1.04,0,0,0-1.037-.967h-4.729a1.047,1.047,0,0,0-1.046,1.045v25.684a1.046,1.046,0,0,0,1.046,1.05h4.729a1.04,1.04,0,0,0,1.031-.9l0-18.437c0-.062,0-.124.009-.186a1.718,1.718,0,0,1,1.629-1.582h.874a1.8,1.8,0,0,1,1,.385,1.742,1.742,0,0,1,.642,1.383l.015,18.346a1.049,1.049,0,0,0,1.05,1.046h4.729a1.041,1.041,0,0,0,1.037-1l0-18.42a1.739,1.739,0,0,1,.772-1.48,1.9,1.9,0,0,1,.872-.291h.872a1.733,1.733,0,0,1,1.638,1.772l.019,18.32a1.046,1.046,0,0,0,1.045,1.05h4.728a1.049,1.049,0,0,0,1.048-1.05v-19.7a6.676,6.676,0,0,0-.359-2.5" transform="translate(-60.001 -115.352)" fill="#00b2f1"/>
    <path id="Path_2" data-name="Path 2" d="M141.643,123.082h-2.7v-4.4a.932.932,0,0,0-1.137-.936c-3,.823-2.4,4.977-7.87,5.332H129.4a1.142,1.142,0,0,0-.229.026h0a1.045,1.045,0,0,0-.813,1.02v4.725a1.046,1.046,0,0,0,1.045,1.05h2.855l0,20.051a1.033,1.033,0,0,0,1.035,1.035h4.674a1.032,1.032,0,0,0,1.031-1.035l0-20.051h2.649a1.046,1.046,0,0,0,1.044-1.05v-4.725a1.043,1.043,0,0,0-1.044-1.046" transform="translate(-67.902 -117.728)" fill="#00b2f1"/>
    <path id="Path_3" data-name="Path 3" d="M134.232,120.578h-4.727a1.046,1.046,0,0,0-1.048,1.046V131.4a1.109,1.109,0,0,1-1.1,1.093H125.37a1.112,1.112,0,0,1-1.11-1.112l-.017-9.759a1.044,1.044,0,0,0-1.045-1.046h-4.732a1.044,1.044,0,0,0-1.044,1.046V132.34a6.711,6.711,0,0,0,6.975,6.973s3.058,0,3.152.017a1.1,1.1,0,0,1,.015,2.189c-.024,0-.047.009-.077.013l-6.917.026a1.047,1.047,0,0,0-1.048,1.046v4.729a1.05,1.05,0,0,0,1.048,1.046H128.3a6.712,6.712,0,0,0,6.977-6.975v-19.78a1.044,1.044,0,0,0-1.046-1.046" transform="translate(-77.508 -115.223)" fill="#0c2756"/>
    <path id="Path_4" data-name="Path 4" d="M107.538,120.579H97.2a1.024,1.024,0,0,0-1.026,1.024v4.631l0,.021,0,.073V147.3a1.02,1.02,0,0,0,.956,1.05h4.819A1.046,1.046,0,0,0,103,147.3l.017-7.188h4.524a6.138,6.138,0,0,0,6.429-6.429v-6.671a6.146,6.146,0,0,0-6.429-6.434m-.415,8.662v2.921a1.11,1.11,0,0,1-1.108,1.108l-3,0v-5.85h3a1.107,1.107,0,0,1,1.108,1.108Z" transform="translate(-96.176 -115.222)" fill="#0c2756"/>
    <path id="Path_5" data-name="Path 5" d="M116.9,120.592h-6.56a1.02,1.02,0,0,0-1.052.981v1.837l0,.026,0,.051v2.521a1.079,1.079,0,0,0,1.116,1.039l6.248,0a1.085,1.085,0,0,1,.941,1v.609a1.059,1.059,0,0,1-.919.973h-3.09c-4.116,0-7.05,2.733-7.05,6.571v5.5a6.2,6.2,0,0,0,6.609,6.532h8.576a2.7,2.7,0,0,0,2.788-2.6V127.691c0-4.353-2.247-7.1-7.607-7.1m.755,19.742v.738a1.036,1.036,0,0,1-.021.173,1.229,1.229,0,0,1-.041.154,1.11,1.11,0,0,1-1.056.712h-1.967a1.08,1.08,0,0,1-1.114-1.039v-.894l0-.023,0-2.384v-.748a1.08,1.08,0,0,1,1.114-1.035h1.967a1.083,1.083,0,0,1,1.118,1.041Z" transform="translate(-87.08 -115.211)" fill="#0c2756"/>
    <path id="Path_6" data-name="Path 6" d="M157.781,127.619h1.007a5.436,5.436,0,0,0,3.419-.951,3.34,3.34,0,0,0,1.242-2.777c0-2.305-1.475-3.472-4.383-3.472h-3.119v11.508h1.834v-4.31m0-5.536h1.14a3.51,3.51,0,0,1,2.05.473,1.617,1.617,0,0,1,.6,1.394,1.74,1.74,0,0,1-.641,1.527,4.032,4.032,0,0,1-2.284.49h-.864Z" transform="translate(-43.657 -115.363)" fill="#00b2f1"/>
    <path id="Path_7" data-name="Path 7" d="M165.754,131.407a4.469,4.469,0,0,0,1.512-1.238l.293,1.407H169v-7.368a3.644,3.644,0,0,0-.958-2.8,4.189,4.189,0,0,0-2.9-.879,7.678,7.678,0,0,0-1.9.246,7.983,7.983,0,0,0-1.751.678l-.111.062.6,1.482.135-.066a6.848,6.848,0,0,1,2.933-.8,2.092,2.092,0,0,1,1.614.547,2.581,2.581,0,0,1,.5,1.751v.52l-1.663.051c-3.5.107-5.268,1.285-5.268,3.506a3.1,3.1,0,0,0,.939,2.414,3.681,3.681,0,0,0,2.564.847,4.972,4.972,0,0,0,2.023-.363m1.366-5.035v.812a2.91,2.91,0,0,1-.815,2.2,3.135,3.135,0,0,1-2.256.783,2.09,2.09,0,0,1-1.381-.419,1.521,1.521,0,0,1-.481-1.223,1.644,1.644,0,0,1,.78-1.516,5.74,5.74,0,0,1,2.7-.575Z" transform="translate(-39.896 -115.268)" fill="#00b2f1"/>
    <path id="Path_8" data-name="Path 8" d="M171.3,132.872l4.552-12.061.071-.19H173.9l-.034.09c-1.475,4.08-2.36,6.554-2.624,7.345-.186.554-.327.99-.425,1.315-.162-.62-.451-1.5-.866-2.623l-2.352-6.128h-2.025l4.33,10.791-.569,1.456a2.307,2.307,0,0,1-2.226,1.768,5.581,5.581,0,0,1-1.161-.113l-.171-.038v1.571l.109.026a6.667,6.667,0,0,0,1.482.165,3.521,3.521,0,0,0,2.307-.778,6.17,6.17,0,0,0,1.623-2.6" transform="translate(-35.196 -115.185)" fill="#00b2f1"/>
    <path id="Path_9" data-name="Path 9" d="M183.482,120.518a4.409,4.409,0,0,0-2.115.5,3.549,3.549,0,0,0-1.336,1.212,3.332,3.332,0,0,0-3.3-1.713,4.038,4.038,0,0,0-1.914.451,3.336,3.336,0,0,0-1.2,1.052l-.237-1.309h-1.559v10.875H173.7v-5.7a4.792,4.792,0,0,1,.671-2.872,2.5,2.5,0,0,1,2.1-.851,1.986,1.986,0,0,1,1.584.584,2.737,2.737,0,0,1,.507,1.807v7.034h1.886V125.53a3.976,3.976,0,0,1,.682-2.557,2.6,2.6,0,0,1,2.106-.812,1.965,1.965,0,0,1,1.574.584,2.716,2.716,0,0,1,.511,1.807v7.034h1.884v-7.05a4.3,4.3,0,0,0-.934-3.053,3.746,3.746,0,0,0-2.792-.966" transform="translate(-29.712 -115.277)" fill="#00b2f1"/>
    <path id="Path_10" data-name="Path 10" d="M185.8,120.518a4.343,4.343,0,0,0-3.5,1.559,6.308,6.308,0,0,0-1.294,4.161,5.687,5.687,0,0,0,1.4,4.067,5.016,5.016,0,0,0,3.8,1.473,9.319,9.319,0,0,0,1.864-.162,8.855,8.855,0,0,0,1.636-.535l.085-.038v-1.736l-.2.085a8.434,8.434,0,0,1-3.325.7,3.144,3.144,0,0,1-2.414-.92,3.967,3.967,0,0,1-.9-2.6h7.293v-1.155a5.187,5.187,0,0,0-1.2-3.549,4.154,4.154,0,0,0-3.256-1.356m-1.95,2.41a2.494,2.494,0,0,1,1.933-.785,2.232,2.232,0,0,1,1.824.755,3.321,3.321,0,0,1,.641,2.095H183A3.629,3.629,0,0,1,183.848,122.928Z" transform="translate(-21.637 -115.277)" fill="#00b2f1"/>
    <path id="Path_11" data-name="Path 11" d="M192.38,120.518a4.643,4.643,0,0,0-2.042.443,3.537,3.537,0,0,0-1.308,1.069l-.235-1.319h-1.561v10.875h1.884v-5.7a4.43,4.43,0,0,1,.738-2.872,2.926,2.926,0,0,1,2.329-.851,2.268,2.268,0,0,1,1.743.594,2.639,2.639,0,0,1,.554,1.837v6.994h1.886v-7.05a4.068,4.068,0,0,0-1.013-3.055,4.174,4.174,0,0,0-2.978-.964" transform="translate(-16.166 -115.277)" fill="#00b2f1"/>
    <path id="Path_12" data-name="Path 12" d="M198.718,131.17a5.314,5.314,0,0,1-.8.062,1.448,1.448,0,0,1-1.144-.466,2.029,2.029,0,0,1-.417-1.375V123.3h3.075v-1.527h-3.075v-2.455h-1.172l-.688,2.3-1.54.676V123.3h1.516v6.164c0,2.237,1.078,3.378,3.214,3.378a6.3,6.3,0,0,0,.936-.085,3.256,3.256,0,0,0,.806-.218l.081-.041v-1.5l-.18.053a5.279,5.279,0,0,1-.611.124" transform="translate(-11.138 -116.335)" fill="#00b2f1"/>
    <path id="Path_13" data-name="Path 13" d="M204.152,126.708a7.03,7.03,0,0,0-2.6-1.416,15.56,15.56,0,0,1-1.834-.774,2.042,2.042,0,0,1-.659-.528,1.09,1.09,0,0,1-.188-.646.955.955,0,0,1,.517-.862,3.15,3.15,0,0,1,1.642-.338,7.61,7.61,0,0,1,2.839.646l.126.051.684-1.559-.132-.054a8.636,8.636,0,0,0-3.4-.708,5.075,5.075,0,0,0-2.968.774,2.53,2.53,0,0,0-1.11,2.162,2.586,2.586,0,0,0,.319,1.317,3.078,3.078,0,0,0,.975.979,11.373,11.373,0,0,0,2.128.975,8.189,8.189,0,0,1,2.051,1.018,1.17,1.17,0,0,1,.485.947,1.185,1.185,0,0,1-.607,1.1,3.711,3.711,0,0,1-1.858.381,6.715,6.715,0,0,1-1.657-.22,7.576,7.576,0,0,1-1.606-.6l-.207-.1v1.8l.073.038a6.875,6.875,0,0,0,3.353.688,5.346,5.346,0,0,0,3.179-.83,2.8,2.8,0,0,0,1.159-2.393,2.6,2.6,0,0,0-.7-1.849" transform="translate(-7.531 -115.277)" fill="#00b2f1"/>
    <path id="Path_14" data-name="Path 14" d="M162.21,134.952a2.5,2.5,0,0,0,.9-.654,2.687,2.687,0,0,0,.609-1.787,2.585,2.585,0,0,0-1.1-2.294,6.036,6.036,0,0,0-3.308-.7h-3.366v11.5h4.094a4.512,4.512,0,0,0,2.951-.887,3.105,3.105,0,0,0,1.1-2.508,2.658,2.658,0,0,0-1.877-2.675m-.047,2.585a1.618,1.618,0,0,1-.562,1.385,3.008,3.008,0,0,1-1.82.455h-2v-3.534h1.9a3.428,3.428,0,0,1,1.924.43A1.422,1.422,0,0,1,162.163,137.537Zm-4.387-3.331v-3.025h1.593a3.869,3.869,0,0,1,1.946.368,1.167,1.167,0,0,1,.524,1.09,1.355,1.355,0,0,1-.473,1.2,3.184,3.184,0,0,1-1.777.37Z" transform="translate(-43.657 -107.364)" fill="#00b2f1"/>
    <path id="Path_15" data-name="Path 15" d="M165.883,129.648a7.953,7.953,0,0,0-3.691.936l-.109.056.6,1.5.137-.068a6.945,6.945,0,0,1,2.966-.806,2.111,2.111,0,0,1,1.627.55,2.614,2.614,0,0,1,.507,1.772v.526l-1.68.054c-3.534.109-5.324,1.3-5.324,3.539a3.143,3.143,0,0,0,.949,2.44,3.724,3.724,0,0,0,2.591.855,5.1,5.1,0,0,0,2.048-.366,4.486,4.486,0,0,0,1.524-1.251l.3,1.424h1.456v-7.447a3.7,3.7,0,0,0-.971-2.831,4.226,4.226,0,0,0-2.929-.885m2,5.9v.821a2.943,2.943,0,0,1-.821,2.222,3.17,3.17,0,0,1-2.283.793,2.069,2.069,0,0,1-1.4-.426,1.541,1.541,0,0,1-.485-1.229,1.664,1.664,0,0,1,.789-1.537,5.762,5.762,0,0,1,2.722-.582Z" transform="translate(-39.291 -107.254)" fill="#00b2f1"/>
    <path id="Path_16" data-name="Path 16" d="M172.467,129.638a4.681,4.681,0,0,0-2.066.449,3.523,3.523,0,0,0-1.321,1.078l-.239-1.332h-1.576V140.82h1.9v-5.756a4.5,4.5,0,0,1,.746-2.906,2.951,2.951,0,0,1,2.358-.862,2.3,2.3,0,0,1,1.762.6,2.681,2.681,0,0,1,.558,1.86v7.065h1.9v-7.126a4.14,4.14,0,0,0-1.016-3.085,4.226,4.226,0,0,0-3.01-.971" transform="translate(-33.712 -107.263)" fill="#00b2f1"/>
    <path id="Path_17" data-name="Path 17" d="M182.532,131.845h-2.309l-3.5,3.71c-.453.507-.815.943-1.09,1.3.036-.567.056-1,.056-1.3v-8.2H173.8v15.484h1.884v-4.082l1.054-.911,3.735,4.993h2.314l-4.74-6.275,4.482-4.712" transform="translate(-27.969 -109.275)" fill="#00b2f1"/>
  </g>
</svg>
